<svg width="394" height="74" viewBox="0 0 394 74" fill="none" xmlns="http://www.w3.org/2000/svg">
<path d="M114.222 42.2C115.589 42.2 116.555 42.3667 117.122 42.7C117.722 43 118.122 43.4833 118.322 44.15C118.522 44.7833 118.622 45.6333 118.622 46.7C118.622 47.7333 118.505 48.5667 118.272 49.2C118.072 49.8333 117.722 50.2667 117.222 50.5C116.489 50.9 115.455 51.1 114.122 51.1H94.5719C93.3719 51.1 92.3385 50.65 91.4719 49.75C90.6052 48.85 90.1719 47.8 90.1719 46.6C90.1719 44.8 90.7885 43.15 92.0219 41.65C93.2885 40.1167 94.8052 38.8167 96.5719 37.75C98.3385 36.65 100.105 35.5833 101.872 34.55C103.639 33.4833 105.139 32.2833 106.372 30.95C107.639 29.6167 108.272 28.2 108.272 26.7C108.272 26.4 108.155 25.9833 107.922 25.45C107.689 24.8833 107.422 24.4333 107.122 24.1C106.855 23.7333 106.422 23.4 105.822 23.1C105.222 22.8 104.389 22.65 103.322 22.65C102.255 22.65 101.322 23.05 100.522 23.85C99.7552 24.6167 99.3219 25.3833 99.2219 26.15L99.0219 27.3V27.6C99.0219 28.3333 98.9885 28.8833 98.9219 29.25C98.8885 29.6167 98.7385 30.0333 98.4719 30.5C97.9719 31.3 96.6719 31.7 94.5719 31.7C92.2385 31.7 90.8552 31.0667 90.4219 29.8C90.2552 29.2667 90.1719 28.4167 90.1719 27.25C90.1719 23.7833 91.4052 20.6833 93.8719 17.95C96.3719 15.1833 99.6219 13.8 103.622 13.8C107.655 13.8 110.922 15.2 113.422 18C115.922 20.7667 117.172 23.9333 117.172 27.5C117.172 29.4 116.755 31.2 115.922 32.9C115.089 34.6 114.089 35.9667 112.922 37C110.455 39.2 108.255 40.6833 106.322 41.45L105.072 41.95V42.2H114.222ZM124.441 18.6C125.407 17.2333 126.757 16.1 128.491 15.2C130.257 14.2667 132.291 13.8 134.591 13.8C136.891 13.8 138.891 14.25 140.591 15.15C142.324 16.05 143.674 17.1667 144.641 18.5C145.641 19.8333 146.441 21.4 147.041 23.2C148.041 26.2 148.541 29.3833 148.541 32.75C148.541 38.7833 147.241 43.5667 144.641 47.1C143.674 48.4333 142.324 49.5333 140.591 50.4C138.891 51.2667 136.907 51.7 134.641 51.7C132.374 51.7 130.357 51.2667 128.591 50.4C126.857 49.5 125.491 48.4 124.491 47.1C123.524 45.8 122.724 44.25 122.091 42.45C121.124 39.5833 120.641 36.3333 120.641 32.7C120.641 29.3667 121.024 26.5167 121.791 24.15C122.591 21.7833 123.474 19.9333 124.441 18.6ZM134.541 42.8C137.974 42.8 139.691 39.5333 139.691 33V32.7C139.691 26 137.991 22.65 134.591 22.65C131.191 22.65 129.491 26.0167 129.491 32.75C129.491 39.45 131.174 42.8 134.541 42.8ZM169.061 15.55C169.327 15.0833 169.777 14.7667 170.411 14.6C171.077 14.4 171.927 14.3 172.961 14.3C174.027 14.3 174.877 14.4167 175.511 14.65C176.144 14.85 176.594 15.2 176.861 15.7C177.127 16.1667 177.277 16.6 177.311 17C177.377 17.4 177.411 17.9833 177.411 18.75V46.55C177.411 47.85 177.244 48.8167 176.911 49.45C176.611 50.05 176.127 50.45 175.461 50.65C174.827 50.85 174.027 50.95 173.061 50.95C172.094 50.95 171.327 50.8667 170.761 50.7C170.194 50.5333 169.761 50.3333 169.461 50.1C169.161 49.8667 168.944 49.5333 168.811 49.1C168.611 48.5333 168.511 47.6667 168.511 46.5V40.4H154.961C152.627 40.4 151.244 39.7667 150.811 38.5C150.644 37.9667 150.561 37.25 150.561 36.35C150.561 35.45 150.611 34.7833 150.711 34.35L154.861 17.6C155.061 16.8333 155.227 16.25 155.361 15.85C155.527 15.45 155.827 15.0667 156.261 14.7C156.727 14.3333 157.311 14.15 158.011 14.15C158.711 14.15 159.477 14.2667 160.311 14.5C162.644 15.1333 163.811 16.2 163.811 17.7C163.811 18.2333 163.694 18.9333 163.461 19.8C163.427 19.8667 163.411 19.9167 163.411 19.95L160.361 32.15H168.511V18.5C168.511 17.7333 168.527 17.1667 168.561 16.8C168.627 16.4333 168.794 16.0167 169.061 15.55ZM196.15 44.05H184.25C182.384 44.05 181.267 43.4833 180.9 42.35C180.734 41.75 180.65 40.9833 180.65 40.05C180.65 39.1167 180.75 38.3667 180.95 37.8C181.15 37.2333 181.467 36.8333 181.9 36.6C182.5 36.3 183.3 36.15 184.3 36.15H196.2C198.067 36.15 199.167 36.7 199.5 37.8C199.7 38.4 199.8 39.1667 199.8 40.1C199.8 41.0333 199.7 41.8 199.5 42.4C199.334 42.9667 199.05 43.3667 198.65 43.6C198.05 43.9 197.217 44.05 196.15 44.05ZM231.081 44.8C231.581 46 231.831 46.8667 231.831 47.4C231.831 48.6667 230.798 49.7333 228.731 50.6C227.665 51.0667 226.798 51.3 226.131 51.3C225.498 51.3 224.965 51.15 224.531 50.85C224.131 50.5167 223.831 50.1833 223.631 49.85C223.298 49.2167 221.998 46.2 219.731 40.8L218.181 40.9H211.881V46.55C211.881 47.3167 211.848 47.9 211.781 48.3C211.748 48.6667 211.598 49.1 211.331 49.6C210.865 50.5 209.565 50.95 207.431 50.95C205.098 50.95 203.731 50.3333 203.331 49.1C203.131 48.5333 203.031 47.6667 203.031 46.5V18.75C203.031 17.9833 203.048 17.4167 203.081 17.05C203.148 16.65 203.315 16.2 203.581 15.7C204.048 14.8 205.348 14.35 207.481 14.35H218.281C221.215 14.35 224.065 15.4167 226.831 17.55C228.165 18.5833 229.265 19.9833 230.131 21.75C230.998 23.5167 231.431 25.4833 231.431 27.65C231.431 31.4167 230.181 34.5167 227.681 36.95C228.415 38.7167 229.548 41.3333 231.081 44.8ZM211.881 32.05H218.281C219.248 32.05 220.215 31.6833 221.181 30.95C222.148 30.2167 222.631 29.1167 222.631 27.65C222.631 26.1833 222.148 25.0833 221.181 24.35C220.215 23.5833 219.215 23.2 218.181 23.2H211.881V32.05ZM258.998 34.7C258.998 36.7333 258.481 38.25 257.448 39.25C256.448 40.2167 255.331 40.7 254.098 40.7H242.248C242.248 41.6333 242.798 42.4167 243.898 43.05C244.998 43.6833 246.098 44 247.198 44C249.131 44 250.648 43.8 251.748 43.4L252.298 43.2C253.098 42.8333 253.764 42.65 254.298 42.65C255.364 42.65 256.281 43.4 257.048 44.9C257.481 45.8 257.698 46.5667 257.698 47.2C257.698 50.1667 254.148 51.65 247.048 51.65C244.581 51.65 242.381 51.2333 240.448 50.4C238.548 49.5333 237.064 48.4 235.998 47C233.898 44.3 232.848 41.2833 232.848 37.95C232.848 33.75 234.198 30.4 236.898 27.9C239.631 25.3667 243.031 24.1 247.098 24.1C251.731 24.1 255.131 25.7333 257.298 29C258.431 30.7333 258.998 32.6333 258.998 34.7ZM248.448 36.15C249.714 36.15 250.348 35.6167 250.348 34.55C250.348 33.7833 250.048 33.1667 249.448 32.7C248.881 32.2333 248.048 32 246.948 32C245.881 32 244.814 32.45 243.748 33.35C242.681 34.2167 242.148 35.15 242.148 36.15H248.448ZM262.46 48.65C261.826 48.25 261.51 47.6167 261.51 46.75C261.51 45.8833 262.143 44.5667 263.41 42.8C263.776 42.2333 264.36 41.95 265.16 41.95C265.993 41.95 267.11 42.3667 268.51 43.2C269.91 44 271.176 44.4 272.31 44.4C274.343 44.4 275.36 44 275.36 43.2C275.36 42.5667 274.243 42.1 272.01 41.8C269.91 41.5 267.826 40.7167 265.76 39.45C264.793 38.85 263.993 37.9167 263.36 36.65C262.726 35.35 262.41 33.8167 262.41 32.05C262.41 26.7833 266.026 24.15 273.26 24.15C275.626 24.15 278.06 24.7167 280.56 25.85C281.726 26.3833 282.31 27.05 282.31 27.85C282.31 28.65 281.943 29.6333 281.21 30.8C280.476 31.9667 279.726 32.55 278.96 32.55C278.56 32.55 277.81 32.3 276.71 31.8C275.643 31.3 274.476 31.05 273.21 31.05C271.243 31.05 270.26 31.4167 270.26 32.15C270.26 33.15 271.393 33.8 273.66 34.1C275.86 34.3333 277.993 34.9667 280.06 36C281.026 36.4667 281.826 37.2833 282.46 38.45C283.126 39.5833 283.46 41.0167 283.46 42.75C283.46 44.4833 283.126 45.9667 282.46 47.2C281.826 48.4 280.926 49.3 279.76 49.9C277.626 50.9333 274.943 51.45 271.71 51.45C268.51 51.45 265.426 50.5167 262.46 48.65ZM294.973 37.85C294.973 39.25 295.439 40.35 296.373 41.15C297.306 41.9167 298.289 42.3 299.323 42.3C300.389 42.3 301.373 42 302.273 41.4C303.206 40.7667 303.956 40.45 304.523 40.45C305.523 40.45 306.739 41.3333 308.173 43.1C308.939 44.0667 309.323 44.9333 309.323 45.7C309.323 46.9667 308.406 48.15 306.573 49.25C304.673 50.5833 302.339 51.25 299.573 51.25C296.473 51.25 293.489 50.1333 290.623 47.9C289.256 46.8333 288.139 45.4167 287.273 43.65C286.406 41.85 285.973 39.8833 285.973 37.75C285.973 35.5833 286.406 33.6333 287.273 31.9C288.139 30.1333 289.256 28.7167 290.623 27.65C293.389 25.45 296.339 24.35 299.473 24.35C300.739 24.35 301.973 24.5333 303.173 24.9C304.373 25.2333 305.256 25.5667 305.823 25.9L306.623 26.4C307.223 26.8 307.689 27.1167 308.023 27.35C308.889 28.0167 309.323 28.7833 309.323 29.65C309.323 30.4833 308.973 31.4333 308.273 32.5C307.073 34.3333 305.923 35.25 304.823 35.25C304.189 35.25 303.289 34.8833 302.123 34.15C301.523 33.5833 300.656 33.3 299.523 33.3C298.423 33.3 297.389 33.7 296.423 34.5C295.456 35.3 294.973 36.4167 294.973 37.85ZM324.253 50.9C320.886 50.9 318.086 49.6333 315.853 47.1C313.653 44.5333 312.553 41.4167 312.553 37.75V29C312.553 28.2 312.569 27.6167 312.603 27.25C312.669 26.8833 312.819 26.45 313.053 25.95C313.519 25.05 314.819 24.6 316.953 24.6C319.286 24.6 320.653 25.2333 321.053 26.5C321.253 27.0333 321.353 27.8833 321.353 29.05V37.8C321.353 39.1667 321.736 40.2333 322.503 41C323.303 41.7667 324.353 42.15 325.653 42.15C326.986 42.15 328.053 41.75 328.853 40.95C329.686 40.15 330.103 39.1 330.103 37.8V28.95C330.103 28.1833 330.119 27.6167 330.153 27.25C330.219 26.85 330.386 26.4 330.653 25.9C331.086 25.0333 332.369 24.6 334.503 24.6C336.603 24.6 337.886 25.05 338.353 25.95C338.586 26.45 338.719 26.9 338.753 27.3C338.819 27.6667 338.853 28.2333 338.853 29V46.7C338.853 47.4333 338.819 48 338.753 48.4C338.719 48.7667 338.569 49.1833 338.303 49.65C337.803 50.5167 336.519 50.95 334.453 50.95C332.419 50.95 331.169 50.55 330.703 49.75C330.369 49.1833 330.203 48.5 330.203 47.7C330.069 47.9333 329.769 48.2667 329.303 48.7C328.836 49.1333 328.386 49.5 327.953 49.8C326.819 50.5333 325.586 50.9 324.253 50.9ZM368.275 34.7C368.275 36.7333 367.758 38.25 366.725 39.25C365.725 40.2167 364.608 40.7 363.375 40.7H351.525C351.525 41.6333 352.075 42.4167 353.175 43.05C354.275 43.6833 355.375 44 356.475 44C358.408 44 359.925 43.8 361.025 43.4L361.575 43.2C362.375 42.8333 363.042 42.65 363.575 42.65C364.642 42.65 365.558 43.4 366.325 44.9C366.758 45.8 366.975 46.5667 366.975 47.2C366.975 50.1667 363.425 51.65 356.325 51.65C353.858 51.65 351.658 51.2333 349.725 50.4C347.825 49.5333 346.342 48.4 345.275 47C343.175 44.3 342.125 41.2833 342.125 37.95C342.125 33.75 343.475 30.4 346.175 27.9C348.908 25.3667 352.308 24.1 356.375 24.1C361.008 24.1 364.408 25.7333 366.575 29C367.708 30.7333 368.275 32.6333 368.275 34.7ZM357.725 36.15C358.992 36.15 359.625 35.6167 359.625 34.55C359.625 33.7833 359.325 33.1667 358.725 32.7C358.158 32.2333 357.325 32 356.225 32C355.158 32 354.092 32.45 353.025 33.35C351.958 34.2167 351.425 35.15 351.425 36.15H357.725ZM371.737 48.65C371.104 48.25 370.787 47.6167 370.787 46.75C370.787 45.8833 371.42 44.5667 372.687 42.8C373.054 42.2333 373.637 41.95 374.437 41.95C375.27 41.95 376.387 42.3667 377.787 43.2C379.187 44 380.454 44.4 381.587 44.4C383.62 44.4 384.637 44 384.637 43.2C384.637 42.5667 383.52 42.1 381.287 41.8C379.187 41.5 377.104 40.7167 375.037 39.45C374.07 38.85 373.27 37.9167 372.637 36.65C372.004 35.35 371.687 33.8167 371.687 32.05C371.687 26.7833 375.304 24.15 382.537 24.15C384.904 24.15 387.337 24.7167 389.837 25.85C391.004 26.3833 391.587 27.05 391.587 27.85C391.587 28.65 391.22 29.6333 390.487 30.8C389.754 31.9667 389.004 32.55 388.237 32.55C387.837 32.55 387.087 32.3 385.987 31.8C384.92 31.3 383.754 31.05 382.487 31.05C380.52 31.05 379.537 31.4167 379.537 32.15C379.537 33.15 380.67 33.8 382.937 34.1C385.137 34.3333 387.27 34.9667 389.337 36C390.304 36.4667 391.104 37.2833 391.737 38.45C392.404 39.5833 392.737 41.0167 392.737 42.75C392.737 44.4833 392.404 45.9667 391.737 47.2C391.104 48.4 390.204 49.3 389.037 49.9C386.904 50.9333 384.22 51.45 380.987 51.45C377.787 51.45 374.704 50.5167 371.737 48.65Z" fill="white"/>
<path d="M63.9739 18.7786V44.9078C63.9739 55.2784 55.5339 63.6863 45.1237 63.6863H43.217L33.4805 73.3795C33.0992 73.7594 32.5717 74 31.987 74C31.4467 74 30.9574 73.8037 30.5824 73.4745L30.4172 73.3099L30.4108 73.3036L20.7569 63.6863H18.8439C8.44003 63.6863 0 55.2784 0 44.9078V18.7786C0 8.40794 8.44003 0 18.8503 0H45.1237C55.5339 0 63.9739 8.40794 63.9739 18.7786Z" fill="#FFD666"/>
<path d="M14.895 36.197C13.0392 36.197 11.9814 38.3036 13.0582 39.8248C17.2449 45.7501 24.1677 49.6133 31.99 49.6133C39.8123 49.6133 46.7289 45.7437 50.9155 39.8248C51.9923 38.3036 50.9345 36.197 49.0787 36.197H14.895Z" fill="white"/>
<path d="M25.764 27.2298H14.5658V21.6036C14.5658 18.4977 17.074 15.9774 20.1649 15.9774C23.2558 15.9774 25.764 18.4977 25.764 21.6036V27.2298Z" fill="white"/>
<path d="M49.4148 27.2298H38.2166V21.6036C38.2166 18.4977 40.7248 15.9774 43.8157 15.9774C46.9066 15.9774 49.4148 18.4977 49.4148 21.6036V27.2298Z" fill="white"/>
</svg>
